# xmcd CD database file
#
# Track frame offsets:
#	150
#	14332
#	27917
#	43225
#	55852
#	68512
#	80170
#	93092
#	105042
#	118810
#	132345
#	144895
#	158755
#	173365
#	187365
#	199685
#	213947
#	227017
#	239542
#	253307
#	267182
#	279255
#	291467
#	306565
#	319525
#
# Disc length: 4404 seconds
#
# Revision: 0
# Processed by: cddbd v1.5.1PL0 Copyright (c) Steve Scherf et al.
# Submitted via: CDex 1.51
#
DISCID=65113219
DTITLE=Thore Jederby - Jazz groups 1940 - 48
DYEAR=1995
DGENRE=Jazz
TTITLE0=I found a new baby
TTITLE1=Farwell blues
TTITLE2=Morning jump
TTITLE3=Blue Lou
TTITLE4=När och var
TTITLE5=Dixieland drums
TTITLE6=Boogie woogie
TTITLE7=Morning jump 2
TTITLE8=Jumping for joy
TTITLE9=Bix idé
TTITLE10=Busters idé
TTITLE11=Rhythm is our business
TTITLE12=Greetings to the lions
TTITLE13=Ev´n jump
TTITLE14=Vid den gamla kvarnen
TTITLE15=Irritation blues
TTITLE16=Mr five by five
TTITLE17=The object of my affection
TTITLE18=Don´t let it mean good bye
TTITLE19=Greetings to Sweden
TTITLE20=Hey ba-ba-re-bop
TTITLE21=All the things you are
TTITLE22=Hallelujah
TTITLE23=Rhythm in a riff
TTITLE24=Fine and dandy
EXTD=YEAR: 1995
EXTT0=
EXTT1=
EXTT2=
EXTT3=
EXTT4=
EXTT5=
EXTT6=
EXTT7=
EXTT8=
EXTT9=
EXTT10=
EXTT11=
EXTT12=
EXTT13=
EXTT14=
EXTT15=
EXTT16=
EXTT17=
EXTT18=
EXTT19=
EXTT20=
EXTT21=
EXTT22=
EXTT23=
EXTT24=
PLAYORDER=
